# xmcd
#
# Track frame offsets: 
#        150
#        10605
#        23778
#        31416
#        39472
#        51776
#        62060
#        72426
#        82486
#        95773
#        106259
#        117217
#        125829
#
# Disc length: 1834 seconds
#
# Revision: 5
# Processed by: cddbd v1.5.2PL0 Copyright (c) Steve Scherf et al.
# Submitted via: ExactAudioCopy v1.1
#
DISCID=b307280d
DTITLE=Al Green - Back Up Train
DYEAR=1967
DGENRE=R&B
TTITLE0=Back Up Train (stereo)
TTITLE1=Hot Wire (stereo)
TTITLE2=Stop And Check Myself (stereo)
TTITLE3=Let Me Help You (stereo)
TTITLE4=I'm Reachin' Out (stereo)
TTITLE5=Don't Hurt Me No More (stereo)
TTITLE6=Don't Leave Me (stereo)
TTITLE7=I'll Be Good To You (stereo)
TTITLE8=Guilty (stereo)
TTITLE9=That's All It Takes (stereo)
TTITLE10=Get Yourself Together (stereo)
TTITLE11=What's It All About (stereo)
TTITLE12=A Lover's Hideaway (mono)
EXTD=
EXTT0=
EXTT1=
EXTT2=
EXTT3=
EXTT4=
EXTT5=
EXTT6=
EXTT7=
EXTT8=
EXTT9=
EXTT10=
EXTT11=
EXTT12=
PLAYORDER=
